<svg width="162" height="162" viewBox="0 0 162 162" fill="none" xmlns="http://www.w3.org/2000/svg">
<path fill-rule="evenodd" clip-rule="evenodd" d="M47.25 40.5693V40.5H142.849L127.421 94.5H65.4123L69.9587 108H128.25V114.75H65.1094L37.8309 33.75H13.5V27H42.6802L47.25 40.5693ZM49.4999 47.25L63.1391 87.75H122.329L133.901 47.25H49.4999ZM118.125 128.25C116.261 128.25 114.75 129.761 114.75 131.625C114.75 133.489 116.261 135 118.125 135C119.989 135 121.5 133.489 121.5 131.625C121.5 129.761 119.989 128.25 118.125 128.25ZM118.125 121.5C123.717 121.5 128.25 126.033 128.25 131.625C128.25 137.217 123.717 141.75 118.125 141.75C112.533 141.75 108 137.217 108 131.625C108 126.033 112.533 121.5 118.125 121.5ZM70.875 128.25C69.011 128.25 67.5 129.761 67.5 131.625C67.5 133.489 69.011 135 70.875 135C72.739 135 74.25 133.489 74.25 131.625C74.25 129.761 72.739 128.25 70.875 128.25ZM70.875 121.5C76.4669 121.5 81 126.033 81 131.625C81 137.217 76.4669 141.75 70.875 141.75C65.2831 141.75 60.75 137.217 60.75 131.625C60.75 126.033 65.2831 121.5 70.875 121.5Z" fill="#000624" style="fill:#000624;fill:color(display-p3 0.0000 0.0235 0.1412);fill-opacity:1;"/>
</svg>
